<mxfile host="app.diagrams.net" modified="2023-07-05T05:32:34.200Z" agent="Mozilla/5.0 (Macintosh; Intel Mac OS X 10_15_7) AppleWebKit/537.36 (KHTML, like Gecko) Chrome/114.0.0.0 Safari/537.36" etag="I83fTpNk9nYVWgX8Jzak" version="21.5.2" type="github" pages="7">
  <diagram id="6RgydICrqF_Up7Ot6GvI" name="技术架构图">
    <mxGraphModel dx="2074" dy="1155" grid="1" gridSize="10" guides="1" tooltips="1" connect="1" arrows="1" fold="1" page="1" pageScale="1" pageWidth="850" pageHeight="1100" math="0" shadow="0">
      <root>
        <mxCell id="0" />
        <mxCell id="1" parent="0" />
        <mxCell id="YqAz-h-w6HjdcNSitB7i-6" value="" style="rounded=0;whiteSpace=wrap;html=1;" parent="1" vertex="1">
          <mxGeometry x="120" y="280" width="160" height="220" as="geometry" />
        </mxCell>
        <mxCell id="YqAz-h-w6HjdcNSitB7i-1" value="前端应用(react.js)" style="rounded=0;whiteSpace=wrap;html=1;" parent="1" vertex="1">
          <mxGeometry x="140" y="390" width="120" height="40" as="geometry" />
        </mxCell>
        <mxCell id="YqAz-h-w6HjdcNSitB7i-2" value="后端API(Java/Python)" style="rounded=0;whiteSpace=wrap;html=1;" parent="1" vertex="1">
          <mxGeometry x="130" y="450" width="140" height="40" as="geometry" />
        </mxCell>
        <mxCell id="YqAz-h-w6HjdcNSitB7i-3" value="" style="endArrow=classic;html=1;entryX=0.5;entryY=1;entryDx=0;entryDy=0;exitX=0.5;exitY=0;exitDx=0;exitDy=0;" parent="1" source="YqAz-h-w6HjdcNSitB7i-2" target="YqAz-h-w6HjdcNSitB7i-1" edge="1">
          <mxGeometry width="50" height="50" relative="1" as="geometry">
            <mxPoint x="390" y="560" as="sourcePoint" />
            <mxPoint x="440" y="510" as="targetPoint" />
          </mxGeometry>
        </mxCell>
        <mxCell id="YqAz-h-w6HjdcNSitB7i-4" value="图数据库(Neo4j)" style="rounded=0;whiteSpace=wrap;html=1;" parent="1" vertex="1">
          <mxGeometry x="120" y="530" width="200" height="60" as="geometry" />
        </mxCell>
        <mxCell id="YqAz-h-w6HjdcNSitB7i-8" value="&lt;font style=&quot;font-size: 15px&quot;&gt;在线服务&lt;/font&gt;" style="text;html=1;strokeColor=none;fillColor=none;align=center;verticalAlign=middle;whiteSpace=wrap;rounded=0;" parent="1" vertex="1">
          <mxGeometry x="160" y="290" width="80" height="20" as="geometry" />
        </mxCell>
        <mxCell id="YqAz-h-w6HjdcNSitB7i-9" value="" style="rounded=0;whiteSpace=wrap;html=1;" parent="1" vertex="1">
          <mxGeometry x="320" y="280" width="330" height="220" as="geometry" />
        </mxCell>
        <mxCell id="YqAz-h-w6HjdcNSitB7i-13" value="&lt;font style=&quot;font-size: 15px&quot;&gt;离线服务&lt;/font&gt;" style="text;html=1;strokeColor=none;fillColor=none;align=center;verticalAlign=middle;whiteSpace=wrap;rounded=0;" parent="1" vertex="1">
          <mxGeometry x="445" y="300" width="80" height="20" as="geometry" />
        </mxCell>
        <mxCell id="YqAz-h-w6HjdcNSitB7i-24" value="" style="edgeStyle=elbowEdgeStyle;elbow=vertical;endArrow=classic;html=1;entryX=0.5;entryY=1;entryDx=0;entryDy=0;exitX=0.25;exitY=0;exitDx=0;exitDy=0;" parent="1" source="YqAz-h-w6HjdcNSitB7i-4" target="YqAz-h-w6HjdcNSitB7i-2" edge="1">
          <mxGeometry width="50" height="50" relative="1" as="geometry">
            <mxPoint x="390" y="510" as="sourcePoint" />
            <mxPoint x="440" y="460" as="targetPoint" />
          </mxGeometry>
        </mxCell>
        <mxCell id="YqAz-h-w6HjdcNSitB7i-25" value="" style="edgeStyle=elbowEdgeStyle;elbow=vertical;endArrow=classic;html=1;exitX=0.5;exitY=1;exitDx=0;exitDy=0;entryX=0.75;entryY=0;entryDx=0;entryDy=0;" parent="1" source="YqAz-h-w6HjdcNSitB7i-10" target="YqAz-h-w6HjdcNSitB7i-4" edge="1">
          <mxGeometry width="50" height="50" relative="1" as="geometry">
            <mxPoint x="245" y="540" as="sourcePoint" />
            <mxPoint x="406" y="540" as="targetPoint" />
            <Array as="points">
              <mxPoint x="380" y="510" />
            </Array>
          </mxGeometry>
        </mxCell>
        <mxCell id="YqAz-h-w6HjdcNSitB7i-26" value="核心镜像库(Oracle)" style="rounded=0;whiteSpace=wrap;html=1;" parent="1" vertex="1">
          <mxGeometry x="410" y="530" width="150" height="60" as="geometry" />
        </mxCell>
        <mxCell id="YqAz-h-w6HjdcNSitB7i-27" value="" style="edgeStyle=elbowEdgeStyle;elbow=vertical;endArrow=none;html=1;exitX=0.5;exitY=1;exitDx=0;exitDy=0;entryX=0.5;entryY=0;entryDx=0;entryDy=0;startArrow=classic;startFill=1;endFill=0;" parent="1" source="YqAz-h-w6HjdcNSitB7i-10" target="YqAz-h-w6HjdcNSitB7i-26" edge="1">
          <mxGeometry width="50" height="50" relative="1" as="geometry">
            <mxPoint x="495" y="440" as="sourcePoint" />
            <mxPoint x="407.5" y="540" as="targetPoint" />
          </mxGeometry>
        </mxCell>
        <mxCell id="YqAz-h-w6HjdcNSitB7i-28" value="负载均衡&lt;br&gt;(Nginx)" style="rounded=0;whiteSpace=wrap;html=1;" parent="1" vertex="1">
          <mxGeometry x="140" y="330" width="120" height="40" as="geometry" />
        </mxCell>
        <mxCell id="WWkaOVveXMTfVkWo0E1d-1" value="" style="endArrow=classic;html=1;entryX=0.5;entryY=1;entryDx=0;entryDy=0;" parent="1" target="YqAz-h-w6HjdcNSitB7i-28" edge="1">
          <mxGeometry width="50" height="50" relative="1" as="geometry">
            <mxPoint x="200" y="390" as="sourcePoint" />
            <mxPoint x="210" y="440" as="targetPoint" />
          </mxGeometry>
        </mxCell>
        <mxCell id="YqAz-h-w6HjdcNSitB7i-10" value="" style="rounded=0;whiteSpace=wrap;html=1;" parent="1" vertex="1">
          <mxGeometry x="340" y="350" width="290" height="140" as="geometry" />
        </mxCell>
        <mxCell id="YqAz-h-w6HjdcNSitB7i-19" value="数据拉取" style="rounded=0;whiteSpace=wrap;html=1;" parent="1" vertex="1">
          <mxGeometry x="410" y="395" width="70" height="30" as="geometry" />
        </mxCell>
        <mxCell id="YqAz-h-w6HjdcNSitB7i-20" value="模型训练" style="rounded=0;whiteSpace=wrap;html=1;" parent="1" vertex="1">
          <mxGeometry x="510" y="395" width="70" height="30" as="geometry" />
        </mxCell>
        <mxCell id="YqAz-h-w6HjdcNSitB7i-21" value="风险标签" style="rounded=0;whiteSpace=wrap;html=1;" parent="1" vertex="1">
          <mxGeometry x="410" y="440" width="70" height="30" as="geometry" />
        </mxCell>
        <mxCell id="6HgxS2PyB8xYXit6VMzc-4" value="&lt;span style=&quot;color: rgb(0, 0, 0); font-family: Helvetica; font-size: 12px; font-style: normal; font-variant-ligatures: normal; font-variant-caps: normal; font-weight: 400; letter-spacing: normal; orphans: 2; text-align: center; text-indent: 0px; text-transform: none; widows: 2; word-spacing: 0px; -webkit-text-stroke-width: 0px; background-color: rgb(251, 251, 251); text-decoration-thickness: initial; text-decoration-style: initial; text-decoration-color: initial; float: none; display: inline !important;&quot;&gt;ETL (AirFlow)&lt;/span&gt;&lt;br style=&quot;border-color: var(--border-color); color: rgb(0, 0, 0); font-family: Helvetica; font-size: 12px; font-style: normal; font-variant-ligatures: normal; font-variant-caps: normal; font-weight: 400; letter-spacing: normal; orphans: 2; text-align: center; text-indent: 0px; text-transform: none; widows: 2; word-spacing: 0px; -webkit-text-stroke-width: 0px; background-color: rgb(251, 251, 251); text-decoration-thickness: initial; text-decoration-style: initial; text-decoration-color: initial;&quot;&gt;" style="text;whiteSpace=wrap;html=1;" vertex="1" parent="1">
          <mxGeometry x="460" y="360" width="80" height="30" as="geometry" />
        </mxCell>
        <mxCell id="6HgxS2PyB8xYXit6VMzc-5" value="用户画像" style="rounded=0;whiteSpace=wrap;html=1;" vertex="1" parent="1">
          <mxGeometry x="510" y="440" width="70" height="30" as="geometry" />
        </mxCell>
      </root>
    </mxGraphModel>
  </diagram>
  <diagram name="理赔 技术架构图" id="eTEM8Vd7qbDomg978h_h">
    <mxGraphModel dx="2074" dy="1155" grid="1" gridSize="10" guides="1" tooltips="1" connect="1" arrows="1" fold="1" page="1" pageScale="1" pageWidth="850" pageHeight="1100" math="0" shadow="0">
      <root>
        <mxCell id="pE2mRgv3mELLWKuftXED-0" />
        <mxCell id="pE2mRgv3mELLWKuftXED-1" parent="pE2mRgv3mELLWKuftXED-0" />
        <mxCell id="pE2mRgv3mELLWKuftXED-2" value="" style="rounded=0;whiteSpace=wrap;html=1;" parent="pE2mRgv3mELLWKuftXED-1" vertex="1">
          <mxGeometry x="130" y="170" width="530" height="240" as="geometry" />
        </mxCell>
        <mxCell id="pE2mRgv3mELLWKuftXED-3" value="前端应用(react.js)" style="rounded=0;whiteSpace=wrap;html=1;" parent="pE2mRgv3mELLWKuftXED-1" vertex="1">
          <mxGeometry x="350" y="270" width="120" height="40" as="geometry" />
        </mxCell>
        <mxCell id="pE2mRgv3mELLWKuftXED-5" value="" style="endArrow=classic;html=1;entryX=0.5;entryY=1;entryDx=0;entryDy=0;exitX=0.5;exitY=0;exitDx=0;exitDy=0;" parent="pE2mRgv3mELLWKuftXED-1" source="pE2mRgv3mELLWKuftXED-4" target="pE2mRgv3mELLWKuftXED-3" edge="1">
          <mxGeometry width="50" height="50" relative="1" as="geometry">
            <mxPoint x="389.5" y="450" as="sourcePoint" />
            <mxPoint x="439.5" y="400" as="targetPoint" />
          </mxGeometry>
        </mxCell>
        <mxCell id="pE2mRgv3mELLWKuftXED-6" value="图数据库(Neo4j)" style="rounded=0;whiteSpace=wrap;html=1;" parent="pE2mRgv3mELLWKuftXED-1" vertex="1">
          <mxGeometry x="130" y="420" width="250" height="60" as="geometry" />
        </mxCell>
        <mxCell id="pE2mRgv3mELLWKuftXED-7" value="&lt;font style=&quot;font-size: 15px&quot;&gt;在线服务&lt;/font&gt;" style="text;html=1;strokeColor=none;fillColor=none;align=center;verticalAlign=middle;whiteSpace=wrap;rounded=0;" parent="pE2mRgv3mELLWKuftXED-1" vertex="1">
          <mxGeometry x="370" y="180" width="80" height="20" as="geometry" />
        </mxCell>
        <mxCell id="pE2mRgv3mELLWKuftXED-14" value="" style="edgeStyle=elbowEdgeStyle;elbow=vertical;endArrow=classic;html=1;entryX=0.5;entryY=1;entryDx=0;entryDy=0;exitX=0.25;exitY=0;exitDx=0;exitDy=0;" parent="pE2mRgv3mELLWKuftXED-1" source="pE2mRgv3mELLWKuftXED-6" target="pE2mRgv3mELLWKuftXED-4" edge="1">
          <mxGeometry width="50" height="50" relative="1" as="geometry">
            <mxPoint x="400" y="400" as="sourcePoint" />
            <mxPoint x="450" y="350" as="targetPoint" />
          </mxGeometry>
        </mxCell>
        <mxCell id="pE2mRgv3mELLWKuftXED-18" value="负载均衡&lt;br&gt;(Nginx)" style="rounded=0;whiteSpace=wrap;html=1;" parent="pE2mRgv3mELLWKuftXED-1" vertex="1">
          <mxGeometry x="350" y="210" width="120" height="40" as="geometry" />
        </mxCell>
        <mxCell id="pE2mRgv3mELLWKuftXED-19" value="消息队列(RocketMQ)" style="rounded=0;whiteSpace=wrap;html=1;" parent="pE2mRgv3mELLWKuftXED-1" vertex="1">
          <mxGeometry x="430" y="420" width="230" height="60" as="geometry" />
        </mxCell>
        <mxCell id="pE2mRgv3mELLWKuftXED-20" value="" style="edgeStyle=elbowEdgeStyle;elbow=vertical;endArrow=classic;html=1;entryX=0.5;entryY=0;entryDx=0;entryDy=0;exitX=0.5;exitY=1;exitDx=0;exitDy=0;startArrow=none;" parent="pE2mRgv3mELLWKuftXED-1" source="pE2mRgv3mELLWKuftXED-4" target="pE2mRgv3mELLWKuftXED-19" edge="1">
          <mxGeometry width="50" height="50" relative="1" as="geometry">
            <mxPoint x="576" y="310" as="sourcePoint" />
            <mxPoint x="290" y="430" as="targetPoint" />
            <Array as="points" />
          </mxGeometry>
        </mxCell>
        <mxCell id="pE2mRgv3mELLWKuftXED-21" value="" style="endArrow=classic;html=1;entryX=0.5;entryY=1;entryDx=0;entryDy=0;exitX=0.5;exitY=0;exitDx=0;exitDy=0;" parent="pE2mRgv3mELLWKuftXED-1" source="pE2mRgv3mELLWKuftXED-3" target="pE2mRgv3mELLWKuftXED-18" edge="1">
          <mxGeometry width="50" height="50" relative="1" as="geometry">
            <mxPoint x="199.5" y="280" as="sourcePoint" />
            <mxPoint x="209.5" y="330" as="targetPoint" />
          </mxGeometry>
        </mxCell>
        <mxCell id="pE2mRgv3mELLWKuftXED-4" value="后端API(Spring-boot)" style="rounded=0;whiteSpace=wrap;html=1;" parent="pE2mRgv3mELLWKuftXED-1" vertex="1">
          <mxGeometry x="350" y="330" width="120" height="40" as="geometry" />
        </mxCell>
      </root>
    </mxGraphModel>
  </diagram>
  <diagram id="1FFrUQSaYlRMK2MxnAn0" name="应用部署拓扑图">
    <mxGraphModel dx="2074" dy="1155" grid="1" gridSize="10" guides="1" tooltips="1" connect="1" arrows="1" fold="1" page="1" pageScale="1" pageWidth="850" pageHeight="1100" math="0" shadow="0">
      <root>
        <mxCell id="J6lK3gyfPiSJ5bxAy8dW-0" />
        <mxCell id="J6lK3gyfPiSJ5bxAy8dW-1" parent="J6lK3gyfPiSJ5bxAy8dW-0" />
        <mxCell id="AL0lNUOTVu000i6iDyiC-1" value="" style="rounded=0;whiteSpace=wrap;html=1;" parent="J6lK3gyfPiSJ5bxAy8dW-1" vertex="1">
          <mxGeometry x="150" y="453" width="120" height="87" as="geometry" />
        </mxCell>
        <mxCell id="aVLW0IZ21ZddwJ_39W-8-0" value="高可用/负载均衡&lt;br&gt;(Nginx)" style="rounded=0;whiteSpace=wrap;html=1;" parent="J6lK3gyfPiSJ5bxAy8dW-1" vertex="1">
          <mxGeometry x="350" y="140" width="120" height="60" as="geometry" />
        </mxCell>
        <mxCell id="aVLW0IZ21ZddwJ_39W-8-8" value="" style="group" parent="J6lK3gyfPiSJ5bxAy8dW-1" vertex="1" connectable="0">
          <mxGeometry x="150" y="230" width="250" height="200" as="geometry" />
        </mxCell>
        <mxCell id="aVLW0IZ21ZddwJ_39W-8-1" value="" style="rounded=0;whiteSpace=wrap;html=1;" parent="aVLW0IZ21ZddwJ_39W-8-8" vertex="1">
          <mxGeometry width="250" height="200" as="geometry" />
        </mxCell>
        <mxCell id="aVLW0IZ21ZddwJ_39W-8-2" value="风险图谱服务器1" style="text;html=1;strokeColor=none;fillColor=none;align=center;verticalAlign=middle;whiteSpace=wrap;rounded=0;" parent="aVLW0IZ21ZddwJ_39W-8-8" vertex="1">
          <mxGeometry x="78.75" y="176.47058823529412" width="92.5" height="16.000000000000004" as="geometry" />
        </mxCell>
        <mxCell id="aVLW0IZ21ZddwJ_39W-8-3" value="前端(React.js)" style="rounded=0;whiteSpace=wrap;html=1;" parent="aVLW0IZ21ZddwJ_39W-8-8" vertex="1">
          <mxGeometry x="65" y="16.000000000000004" width="120" height="32.00000000000001" as="geometry" />
        </mxCell>
        <mxCell id="aVLW0IZ21ZddwJ_39W-8-5" value="后端API(Spring-boot)" style="rounded=0;whiteSpace=wrap;html=1;" parent="aVLW0IZ21ZddwJ_39W-8-8" vertex="1">
          <mxGeometry x="65" y="58.400000000000006" width="120" height="32.00000000000001" as="geometry" />
        </mxCell>
        <mxCell id="aVLW0IZ21ZddwJ_39W-8-6" value="图数据库(Neo4j)" style="rounded=0;whiteSpace=wrap;html=1;" parent="aVLW0IZ21ZddwJ_39W-8-8" vertex="1">
          <mxGeometry x="65" y="140.00176470588235" width="120" height="32.00000000000001" as="geometry" />
        </mxCell>
        <mxCell id="wgF61aFh5HUikAAwYfkf-1" value="后端API(FastAPI)" style="rounded=0;whiteSpace=wrap;html=1;" vertex="1" parent="aVLW0IZ21ZddwJ_39W-8-8">
          <mxGeometry x="65" y="99.99999999999997" width="120" height="32.00000000000001" as="geometry" />
        </mxCell>
        <mxCell id="aVLW0IZ21ZddwJ_39W-8-9" value="" style="group" parent="J6lK3gyfPiSJ5bxAy8dW-1" vertex="1" connectable="0">
          <mxGeometry x="425" y="230" width="315" height="200" as="geometry" />
        </mxCell>
        <mxCell id="aVLW0IZ21ZddwJ_39W-8-10" value="" style="rounded=0;whiteSpace=wrap;html=1;" parent="aVLW0IZ21ZddwJ_39W-8-9" vertex="1">
          <mxGeometry width="250" height="200" as="geometry" />
        </mxCell>
        <mxCell id="aVLW0IZ21ZddwJ_39W-8-11" value="风险图谱服务器2" style="text;html=1;strokeColor=none;fillColor=none;align=center;verticalAlign=middle;whiteSpace=wrap;rounded=0;" parent="aVLW0IZ21ZddwJ_39W-8-9" vertex="1">
          <mxGeometry x="78.75" y="180.00000000000003" width="92.5" height="16.000000000000004" as="geometry" />
        </mxCell>
        <mxCell id="aVLW0IZ21ZddwJ_39W-8-12" value="前端(React.js)" style="rounded=0;whiteSpace=wrap;html=1;" parent="aVLW0IZ21ZddwJ_39W-8-9" vertex="1">
          <mxGeometry x="65" y="16.000000000000004" width="120" height="32.00000000000001" as="geometry" />
        </mxCell>
        <mxCell id="aVLW0IZ21ZddwJ_39W-8-14" value="后端API(Spring-boot)" style="rounded=0;whiteSpace=wrap;html=1;" parent="aVLW0IZ21ZddwJ_39W-8-9" vertex="1">
          <mxGeometry x="65" y="58.400000000000006" width="120" height="32.00000000000001" as="geometry" />
        </mxCell>
        <mxCell id="aVLW0IZ21ZddwJ_39W-8-15" value="图数据库(Neo4j)" style="rounded=0;whiteSpace=wrap;html=1;" parent="aVLW0IZ21ZddwJ_39W-8-9" vertex="1">
          <mxGeometry x="65" y="140" width="120" height="32.00000000000001" as="geometry" />
        </mxCell>
        <mxCell id="wgF61aFh5HUikAAwYfkf-4" value="后端API(FastAPI)" style="rounded=0;whiteSpace=wrap;html=1;" vertex="1" parent="aVLW0IZ21ZddwJ_39W-8-9">
          <mxGeometry x="65" y="98" width="120" height="32.00000000000001" as="geometry" />
        </mxCell>
        <mxCell id="iB21ljo4fx0id0gEnMYG-0" value="" style="edgeStyle=elbowEdgeStyle;elbow=vertical;endArrow=classic;html=1;exitX=0.5;exitY=0;exitDx=0;exitDy=0;" parent="J6lK3gyfPiSJ5bxAy8dW-1" source="aVLW0IZ21ZddwJ_39W-8-3" target="aVLW0IZ21ZddwJ_39W-8-0" edge="1">
          <mxGeometry width="50" height="50" relative="1" as="geometry">
            <mxPoint x="400" y="460" as="sourcePoint" />
            <mxPoint x="410" y="210" as="targetPoint" />
            <Array as="points">
              <mxPoint x="340" y="220" />
            </Array>
          </mxGeometry>
        </mxCell>
        <mxCell id="iB21ljo4fx0id0gEnMYG-1" value="" style="edgeStyle=elbowEdgeStyle;elbow=vertical;endArrow=classic;html=1;exitX=0.5;exitY=0;exitDx=0;exitDy=0;entryX=0.5;entryY=1;entryDx=0;entryDy=0;" parent="J6lK3gyfPiSJ5bxAy8dW-1" source="aVLW0IZ21ZddwJ_39W-8-12" target="aVLW0IZ21ZddwJ_39W-8-0" edge="1">
          <mxGeometry width="50" height="50" relative="1" as="geometry">
            <mxPoint x="285" y="260" as="sourcePoint" />
            <mxPoint x="420" y="220" as="targetPoint" />
            <Array as="points">
              <mxPoint x="480" y="220" />
            </Array>
          </mxGeometry>
        </mxCell>
        <mxCell id="iB21ljo4fx0id0gEnMYG-2" value="" style="edgeStyle=elbowEdgeStyle;elbow=vertical;endArrow=classic;html=1;exitX=0.5;exitY=0;exitDx=0;exitDy=0;entryX=0.5;entryY=1;entryDx=0;entryDy=0;" parent="J6lK3gyfPiSJ5bxAy8dW-1" source="aVLW0IZ21ZddwJ_39W-8-29" target="aVLW0IZ21ZddwJ_39W-8-15" edge="1">
          <mxGeometry width="50" height="50" relative="1" as="geometry">
            <mxPoint x="400" y="413" as="sourcePoint" />
            <mxPoint x="450" y="363" as="targetPoint" />
            <Array as="points">
              <mxPoint x="510" y="443" />
            </Array>
          </mxGeometry>
        </mxCell>
        <mxCell id="iB21ljo4fx0id0gEnMYG-3" value="" style="edgeStyle=elbowEdgeStyle;elbow=vertical;endArrow=classic;html=1;exitX=0.5;exitY=0;exitDx=0;exitDy=0;entryX=0.5;entryY=1;entryDx=0;entryDy=0;" parent="J6lK3gyfPiSJ5bxAy8dW-1" source="aVLW0IZ21ZddwJ_39W-8-29" target="aVLW0IZ21ZddwJ_39W-8-6" edge="1">
          <mxGeometry width="50" height="50" relative="1" as="geometry">
            <mxPoint x="465" y="483" as="sourcePoint" />
            <mxPoint x="560" y="403" as="targetPoint" />
            <Array as="points">
              <mxPoint x="370" y="443" />
            </Array>
          </mxGeometry>
        </mxCell>
        <mxCell id="aVLW0IZ21ZddwJ_39W-8-17" value="" style="rounded=0;whiteSpace=wrap;html=1;" parent="J6lK3gyfPiSJ5bxAy8dW-1" vertex="1">
          <mxGeometry x="300" y="453" width="380" height="170" as="geometry" />
        </mxCell>
        <mxCell id="aVLW0IZ21ZddwJ_39W-8-28" value="核心镜像&lt;br&gt;(Oracle)" style="rounded=0;whiteSpace=wrap;html=1;" parent="J6lK3gyfPiSJ5bxAy8dW-1" vertex="1">
          <mxGeometry x="197.5" y="473" width="55" height="60" as="geometry" />
        </mxCell>
        <mxCell id="iB21ljo4fx0id0gEnMYG-5" value="" style="endArrow=classic;html=1;exitX=1;exitY=0.5;exitDx=0;exitDy=0;entryX=0;entryY=0.5;entryDx=0;entryDy=0;" parent="J6lK3gyfPiSJ5bxAy8dW-1" source="aVLW0IZ21ZddwJ_39W-8-28" target="8Hg2ruLWPWHMfm1rcw9i-0" edge="1">
          <mxGeometry width="50" height="50" relative="1" as="geometry">
            <mxPoint x="400" y="413" as="sourcePoint" />
            <mxPoint x="430" y="383" as="targetPoint" />
          </mxGeometry>
        </mxCell>
        <mxCell id="AL0lNUOTVu000i6iDyiC-0" value="" style="group" parent="J6lK3gyfPiSJ5bxAy8dW-1" vertex="1" connectable="0">
          <mxGeometry x="310" y="473" width="352.5" height="140" as="geometry" />
        </mxCell>
        <mxCell id="aVLW0IZ21ZddwJ_39W-8-18" value="模型训练服务器" style="text;html=1;strokeColor=none;fillColor=none;align=center;verticalAlign=middle;whiteSpace=wrap;rounded=0;" parent="AL0lNUOTVu000i6iDyiC-0" vertex="1">
          <mxGeometry x="122.5" y="120" width="95" height="20" as="geometry" />
        </mxCell>
        <mxCell id="aVLW0IZ21ZddwJ_39W-8-26" value="系统监控组件" style="rounded=0;whiteSpace=wrap;html=1;" parent="AL0lNUOTVu000i6iDyiC-0" vertex="1">
          <mxGeometry y="90" width="100" height="30" as="geometry" />
        </mxCell>
        <mxCell id="aVLW0IZ21ZddwJ_39W-8-27" value="模型迭代性能监控组件" style="rounded=0;whiteSpace=wrap;html=1;" parent="AL0lNUOTVu000i6iDyiC-0" vertex="1">
          <mxGeometry x="227.5" y="90" width="125" height="30" as="geometry" />
        </mxCell>
        <mxCell id="aVLW0IZ21ZddwJ_39W-8-29" value="&lt;br&gt;&lt;br&gt;&lt;br&gt;Airflow" style="rounded=0;whiteSpace=wrap;html=1;" parent="AL0lNUOTVu000i6iDyiC-0" vertex="1">
          <mxGeometry width="350" height="60" as="geometry" />
        </mxCell>
        <mxCell id="8Hg2ruLWPWHMfm1rcw9i-0" value="数据拉取" style="rounded=0;whiteSpace=wrap;html=1;" parent="AL0lNUOTVu000i6iDyiC-0" vertex="1">
          <mxGeometry x="17.5" y="15" width="80" height="30" as="geometry" />
        </mxCell>
        <mxCell id="8Hg2ruLWPWHMfm1rcw9i-1" value="模型训练" style="rounded=0;whiteSpace=wrap;html=1;" parent="AL0lNUOTVu000i6iDyiC-0" vertex="1">
          <mxGeometry x="120" y="15" width="100" height="30" as="geometry" />
        </mxCell>
        <mxCell id="8Hg2ruLWPWHMfm1rcw9i-2" value="风险标签" style="rounded=0;whiteSpace=wrap;html=1;" parent="AL0lNUOTVu000i6iDyiC-0" vertex="1">
          <mxGeometry x="241.25" y="15" width="97.5" height="30" as="geometry" />
        </mxCell>
        <mxCell id="iB21ljo4fx0id0gEnMYG-4" value="" style="edgeStyle=elbowEdgeStyle;elbow=vertical;endArrow=classic;html=1;entryX=0.5;entryY=0;entryDx=0;entryDy=0;exitX=0.5;exitY=1;exitDx=0;exitDy=0;" parent="AL0lNUOTVu000i6iDyiC-0" source="8Hg2ruLWPWHMfm1rcw9i-1" target="aVLW0IZ21ZddwJ_39W-8-27" edge="1">
          <mxGeometry width="50" height="50" relative="1" as="geometry">
            <mxPoint x="120" y="-60" as="sourcePoint" />
            <mxPoint x="170" y="-110" as="targetPoint" />
            <Array as="points">
              <mxPoint x="230" y="70" />
            </Array>
          </mxGeometry>
        </mxCell>
        <mxCell id="AL0lNUOTVu000i6iDyiC-3" value="" style="rounded=0;whiteSpace=wrap;html=1;" parent="J6lK3gyfPiSJ5bxAy8dW-1" vertex="1">
          <mxGeometry x="150" y="550" width="120" height="80" as="geometry" />
        </mxCell>
        <mxCell id="AL0lNUOTVu000i6iDyiC-4" value="核心镜像&lt;br&gt;(Oracle)" style="rounded=0;whiteSpace=wrap;html=1;" parent="J6lK3gyfPiSJ5bxAy8dW-1" vertex="1">
          <mxGeometry x="197.5" y="560" width="55" height="60" as="geometry" />
        </mxCell>
        <mxCell id="AL0lNUOTVu000i6iDyiC-5" value="从库" style="text;html=1;strokeColor=none;fillColor=none;align=center;verticalAlign=middle;whiteSpace=wrap;rounded=0;" parent="J6lK3gyfPiSJ5bxAy8dW-1" vertex="1">
          <mxGeometry x="137.5" y="575" width="60" height="30" as="geometry" />
        </mxCell>
        <mxCell id="AL0lNUOTVu000i6iDyiC-6" value="主库" style="text;html=1;strokeColor=none;fillColor=none;align=center;verticalAlign=middle;whiteSpace=wrap;rounded=0;" parent="J6lK3gyfPiSJ5bxAy8dW-1" vertex="1">
          <mxGeometry x="140" y="488" width="60" height="30" as="geometry" />
        </mxCell>
        <mxCell id="AL0lNUOTVu000i6iDyiC-7" value="" style="endArrow=none;html=1;rounded=0;exitX=0.5;exitY=0;exitDx=0;exitDy=0;entryX=0.5;entryY=1;entryDx=0;entryDy=0;" parent="J6lK3gyfPiSJ5bxAy8dW-1" source="AL0lNUOTVu000i6iDyiC-4" target="aVLW0IZ21ZddwJ_39W-8-28" edge="1">
          <mxGeometry width="50" height="50" relative="1" as="geometry">
            <mxPoint x="400" y="640" as="sourcePoint" />
            <mxPoint x="450" y="590" as="targetPoint" />
          </mxGeometry>
        </mxCell>
      </root>
    </mxGraphModel>
  </diagram>
  <diagram name="理赔 应用部署拓扑图" id="Uefx6NrnaNSI32I04Hg5">
    <mxGraphModel dx="2074" dy="1155" grid="1" gridSize="10" guides="1" tooltips="1" connect="1" arrows="1" fold="1" page="1" pageScale="1" pageWidth="850" pageHeight="1100" math="0" shadow="0">
      <root>
        <mxCell id="G5rFIksgKhNfPpiQTcco-0" />
        <mxCell id="G5rFIksgKhNfPpiQTcco-1" parent="G5rFIksgKhNfPpiQTcco-0" />
        <mxCell id="G5rFIksgKhNfPpiQTcco-3" value="高可用/负载均衡&lt;br&gt;(Nginx)" style="rounded=0;whiteSpace=wrap;html=1;" parent="G5rFIksgKhNfPpiQTcco-1" vertex="1">
          <mxGeometry x="350" y="140" width="120" height="60" as="geometry" />
        </mxCell>
        <mxCell id="G5rFIksgKhNfPpiQTcco-4" value="" style="group" parent="G5rFIksgKhNfPpiQTcco-1" vertex="1" connectable="0">
          <mxGeometry x="150" y="230" width="250" height="170" as="geometry" />
        </mxCell>
        <mxCell id="G5rFIksgKhNfPpiQTcco-5" value="" style="rounded=0;whiteSpace=wrap;html=1;" parent="G5rFIksgKhNfPpiQTcco-4" vertex="1">
          <mxGeometry width="250" height="170" as="geometry" />
        </mxCell>
        <mxCell id="G5rFIksgKhNfPpiQTcco-6" value="风险图谱服务器1" style="text;html=1;strokeColor=none;fillColor=none;align=center;verticalAlign=middle;whiteSpace=wrap;rounded=0;" parent="G5rFIksgKhNfPpiQTcco-4" vertex="1">
          <mxGeometry x="78.75" y="130.22000000000003" width="92.5" height="13.600000000000001" as="geometry" />
        </mxCell>
        <mxCell id="G5rFIksgKhNfPpiQTcco-7" value="前端(React.js)" style="rounded=0;whiteSpace=wrap;html=1;" parent="G5rFIksgKhNfPpiQTcco-4" vertex="1">
          <mxGeometry x="65" y="26.18" width="120" height="27.200000000000003" as="geometry" />
        </mxCell>
        <mxCell id="G5rFIksgKhNfPpiQTcco-8" value="后端API(FastApi)" style="rounded=0;whiteSpace=wrap;html=1;" parent="G5rFIksgKhNfPpiQTcco-4" vertex="1">
          <mxGeometry x="65" y="62.22" width="120" height="27.200000000000003" as="geometry" />
        </mxCell>
        <mxCell id="G5rFIksgKhNfPpiQTcco-9" value="图数据库(Neo4j)" style="rounded=0;whiteSpace=wrap;html=1;" parent="G5rFIksgKhNfPpiQTcco-4" vertex="1">
          <mxGeometry x="65" y="96.22" width="120" height="27.200000000000003" as="geometry" />
        </mxCell>
        <mxCell id="G5rFIksgKhNfPpiQTcco-10" value="" style="group" parent="G5rFIksgKhNfPpiQTcco-1" vertex="1" connectable="0">
          <mxGeometry x="425" y="230" width="315" height="170" as="geometry" />
        </mxCell>
        <mxCell id="G5rFIksgKhNfPpiQTcco-11" value="" style="rounded=0;whiteSpace=wrap;html=1;" parent="G5rFIksgKhNfPpiQTcco-10" vertex="1">
          <mxGeometry width="250" height="170" as="geometry" />
        </mxCell>
        <mxCell id="G5rFIksgKhNfPpiQTcco-12" value="风险图谱服务器2" style="text;html=1;strokeColor=none;fillColor=none;align=center;verticalAlign=middle;whiteSpace=wrap;rounded=0;" parent="G5rFIksgKhNfPpiQTcco-10" vertex="1">
          <mxGeometry x="78.75" y="130.22000000000003" width="92.5" height="13.600000000000001" as="geometry" />
        </mxCell>
        <mxCell id="G5rFIksgKhNfPpiQTcco-13" value="前端(React.js)" style="rounded=0;whiteSpace=wrap;html=1;" parent="G5rFIksgKhNfPpiQTcco-10" vertex="1">
          <mxGeometry x="65" y="26.18" width="120" height="27.200000000000003" as="geometry" />
        </mxCell>
        <mxCell id="G5rFIksgKhNfPpiQTcco-14" value="后端API(FastApi)" style="rounded=0;whiteSpace=wrap;html=1;" parent="G5rFIksgKhNfPpiQTcco-10" vertex="1">
          <mxGeometry x="65" y="62.22" width="120" height="27.200000000000003" as="geometry" />
        </mxCell>
        <mxCell id="G5rFIksgKhNfPpiQTcco-15" value="图数据库(Neo4j)" style="rounded=0;whiteSpace=wrap;html=1;" parent="G5rFIksgKhNfPpiQTcco-10" vertex="1">
          <mxGeometry x="65" y="96.22" width="120" height="27.200000000000003" as="geometry" />
        </mxCell>
        <mxCell id="G5rFIksgKhNfPpiQTcco-16" value="" style="edgeStyle=elbowEdgeStyle;elbow=vertical;endArrow=classic;html=1;exitX=0.5;exitY=0;exitDx=0;exitDy=0;" parent="G5rFIksgKhNfPpiQTcco-1" source="G5rFIksgKhNfPpiQTcco-7" target="G5rFIksgKhNfPpiQTcco-3" edge="1">
          <mxGeometry width="50" height="50" relative="1" as="geometry">
            <mxPoint x="400" y="460" as="sourcePoint" />
            <mxPoint x="410" y="210" as="targetPoint" />
            <Array as="points">
              <mxPoint x="340" y="220" />
            </Array>
          </mxGeometry>
        </mxCell>
        <mxCell id="G5rFIksgKhNfPpiQTcco-17" value="" style="edgeStyle=elbowEdgeStyle;elbow=vertical;endArrow=classic;html=1;exitX=0.5;exitY=0;exitDx=0;exitDy=0;entryX=0.5;entryY=1;entryDx=0;entryDy=0;" parent="G5rFIksgKhNfPpiQTcco-1" source="G5rFIksgKhNfPpiQTcco-13" target="G5rFIksgKhNfPpiQTcco-3" edge="1">
          <mxGeometry width="50" height="50" relative="1" as="geometry">
            <mxPoint x="285" y="260" as="sourcePoint" />
            <mxPoint x="420" y="220" as="targetPoint" />
            <Array as="points">
              <mxPoint x="480" y="220" />
            </Array>
          </mxGeometry>
        </mxCell>
      </root>
    </mxGraphModel>
  </diagram>
  <diagram id="UL5NDFYmmdDWCWEXs-V5" name="数据流向图">
    <mxGraphModel dx="2074" dy="1155" grid="1" gridSize="10" guides="1" tooltips="1" connect="1" arrows="1" fold="1" page="1" pageScale="1" pageWidth="850" pageHeight="1100" math="0" shadow="0">
      <root>
        <mxCell id="qpv_vnCNV6HC7hxUtdJv-0" />
        <mxCell id="qpv_vnCNV6HC7hxUtdJv-1" parent="qpv_vnCNV6HC7hxUtdJv-0" />
        <mxCell id="jTl3cZE2TD3DU1JpzOqJ-14" value="核心镜像库(Oracle)" style="rounded=0;whiteSpace=wrap;html=1;" parent="qpv_vnCNV6HC7hxUtdJv-1" vertex="1">
          <mxGeometry x="60" y="520" width="130" height="60" as="geometry" />
        </mxCell>
        <mxCell id="jTl3cZE2TD3DU1JpzOqJ-17" value="ETL&lt;br&gt;(AirFlow)&lt;br&gt;&lt;br&gt;&lt;br&gt;&lt;br&gt;&lt;br&gt;&lt;br&gt;&lt;br&gt;&lt;br&gt;&lt;br&gt;&lt;br&gt;&lt;br&gt;&lt;br&gt;&lt;br&gt;&lt;br&gt;&lt;br&gt;&lt;br&gt;&lt;br&gt;&lt;br&gt;&lt;br&gt;&lt;br&gt;" style="rounded=0;whiteSpace=wrap;html=1;" parent="qpv_vnCNV6HC7hxUtdJv-1" vertex="1">
          <mxGeometry x="230" y="420" width="130" height="320" as="geometry" />
        </mxCell>
        <mxCell id="jTl3cZE2TD3DU1JpzOqJ-18" value="数据拉取" style="rounded=0;whiteSpace=wrap;html=1;" parent="qpv_vnCNV6HC7hxUtdJv-1" vertex="1">
          <mxGeometry x="261" y="470" width="70" height="40" as="geometry" />
        </mxCell>
        <mxCell id="jTl3cZE2TD3DU1JpzOqJ-19" value="模型训练" style="rounded=0;whiteSpace=wrap;html=1;" parent="qpv_vnCNV6HC7hxUtdJv-1" vertex="1">
          <mxGeometry x="261" y="530" width="70" height="40" as="geometry" />
        </mxCell>
        <mxCell id="jTl3cZE2TD3DU1JpzOqJ-20" value="风险标签" style="rounded=0;whiteSpace=wrap;html=1;" parent="qpv_vnCNV6HC7hxUtdJv-1" vertex="1">
          <mxGeometry x="261" y="600" width="70" height="40" as="geometry" />
        </mxCell>
        <mxCell id="jTl3cZE2TD3DU1JpzOqJ-21" value="" style="edgeStyle=elbowEdgeStyle;elbow=horizontal;endArrow=classic;html=1;exitX=1;exitY=0.5;exitDx=0;exitDy=0;entryX=0;entryY=0.5;entryDx=0;entryDy=0;" parent="qpv_vnCNV6HC7hxUtdJv-1" source="jTl3cZE2TD3DU1JpzOqJ-14" target="jTl3cZE2TD3DU1JpzOqJ-18" edge="1">
          <mxGeometry width="50" height="50" relative="1" as="geometry">
            <mxPoint x="400" y="500" as="sourcePoint" />
            <mxPoint x="450" y="450" as="targetPoint" />
          </mxGeometry>
        </mxCell>
        <mxCell id="jTl3cZE2TD3DU1JpzOqJ-22" value="图数据库(Neo4j)" style="rounded=0;whiteSpace=wrap;html=1;" parent="qpv_vnCNV6HC7hxUtdJv-1" vertex="1">
          <mxGeometry x="405" y="520" width="130" height="60" as="geometry" />
        </mxCell>
        <mxCell id="jTl3cZE2TD3DU1JpzOqJ-24" value="" style="edgeStyle=elbowEdgeStyle;elbow=vertical;endArrow=classic;html=1;entryX=0.5;entryY=0;entryDx=0;entryDy=0;exitX=1;exitY=0.5;exitDx=0;exitDy=0;" parent="qpv_vnCNV6HC7hxUtdJv-1" source="jTl3cZE2TD3DU1JpzOqJ-18" target="jTl3cZE2TD3DU1JpzOqJ-22" edge="1">
          <mxGeometry width="50" height="50" relative="1" as="geometry">
            <mxPoint x="400" y="500" as="sourcePoint" />
            <mxPoint x="450" y="450" as="targetPoint" />
            <Array as="points">
              <mxPoint x="400" y="490" />
            </Array>
          </mxGeometry>
        </mxCell>
        <mxCell id="jTl3cZE2TD3DU1JpzOqJ-25" value="" style="endArrow=classic;html=1;entryX=1;entryY=0.5;entryDx=0;entryDy=0;exitX=0;exitY=0.5;exitDx=0;exitDy=0;" parent="qpv_vnCNV6HC7hxUtdJv-1" source="jTl3cZE2TD3DU1JpzOqJ-22" target="jTl3cZE2TD3DU1JpzOqJ-19" edge="1">
          <mxGeometry width="50" height="50" relative="1" as="geometry">
            <mxPoint x="400" y="500" as="sourcePoint" />
            <mxPoint x="450" y="450" as="targetPoint" />
          </mxGeometry>
        </mxCell>
        <mxCell id="jTl3cZE2TD3DU1JpzOqJ-26" value="" style="endArrow=classic;html=1;exitX=0.5;exitY=1;exitDx=0;exitDy=0;entryX=0.5;entryY=0;entryDx=0;entryDy=0;" parent="qpv_vnCNV6HC7hxUtdJv-1" source="jTl3cZE2TD3DU1JpzOqJ-19" target="jTl3cZE2TD3DU1JpzOqJ-20" edge="1">
          <mxGeometry width="50" height="50" relative="1" as="geometry">
            <mxPoint x="400" y="500" as="sourcePoint" />
            <mxPoint x="450" y="450" as="targetPoint" />
          </mxGeometry>
        </mxCell>
        <mxCell id="jTl3cZE2TD3DU1JpzOqJ-27" value="" style="edgeStyle=elbowEdgeStyle;elbow=vertical;endArrow=classic;html=1;entryX=1;entryY=0.5;entryDx=0;entryDy=0;exitX=0.5;exitY=1;exitDx=0;exitDy=0;" parent="qpv_vnCNV6HC7hxUtdJv-1" source="jTl3cZE2TD3DU1JpzOqJ-22" target="jTl3cZE2TD3DU1JpzOqJ-20" edge="1">
          <mxGeometry width="50" height="50" relative="1" as="geometry">
            <mxPoint x="341" y="500" as="sourcePoint" />
            <mxPoint x="480" y="530" as="targetPoint" />
            <Array as="points">
              <mxPoint x="390" y="620" />
            </Array>
          </mxGeometry>
        </mxCell>
        <mxCell id="jTl3cZE2TD3DU1JpzOqJ-28" value="" style="edgeStyle=elbowEdgeStyle;elbow=vertical;endArrow=classic;html=1;exitX=0.5;exitY=1;exitDx=0;exitDy=0;entryX=0.75;entryY=1;entryDx=0;entryDy=0;" parent="qpv_vnCNV6HC7hxUtdJv-1" source="jTl3cZE2TD3DU1JpzOqJ-20" target="jTl3cZE2TD3DU1JpzOqJ-22" edge="1">
          <mxGeometry width="50" height="50" relative="1" as="geometry">
            <mxPoint x="400" y="500" as="sourcePoint" />
            <mxPoint x="450" y="450" as="targetPoint" />
            <Array as="points">
              <mxPoint x="400" y="670" />
            </Array>
          </mxGeometry>
        </mxCell>
        <mxCell id="jTl3cZE2TD3DU1JpzOqJ-29" value="后端API" style="rounded=0;whiteSpace=wrap;html=1;" parent="qpv_vnCNV6HC7hxUtdJv-1" vertex="1">
          <mxGeometry x="580" y="530" width="70" height="40" as="geometry" />
        </mxCell>
        <mxCell id="jTl3cZE2TD3DU1JpzOqJ-30" value="" style="endArrow=classic;html=1;entryX=0;entryY=0.5;entryDx=0;entryDy=0;exitX=1;exitY=0.5;exitDx=0;exitDy=0;" parent="qpv_vnCNV6HC7hxUtdJv-1" source="jTl3cZE2TD3DU1JpzOqJ-22" target="jTl3cZE2TD3DU1JpzOqJ-29" edge="1">
          <mxGeometry width="50" height="50" relative="1" as="geometry">
            <mxPoint x="400" y="500" as="sourcePoint" />
            <mxPoint x="450" y="450" as="targetPoint" />
          </mxGeometry>
        </mxCell>
        <mxCell id="jTl3cZE2TD3DU1JpzOqJ-31" value="前端应用" style="rounded=0;whiteSpace=wrap;html=1;" parent="qpv_vnCNV6HC7hxUtdJv-1" vertex="1">
          <mxGeometry x="700" y="530" width="70" height="40" as="geometry" />
        </mxCell>
        <mxCell id="jTl3cZE2TD3DU1JpzOqJ-32" value="" style="endArrow=classic;html=1;entryX=0;entryY=0.5;entryDx=0;entryDy=0;exitX=1;exitY=0.5;exitDx=0;exitDy=0;" parent="qpv_vnCNV6HC7hxUtdJv-1" source="jTl3cZE2TD3DU1JpzOqJ-29" target="jTl3cZE2TD3DU1JpzOqJ-31" edge="1">
          <mxGeometry width="50" height="50" relative="1" as="geometry">
            <mxPoint x="545" y="560" as="sourcePoint" />
            <mxPoint x="590" y="560" as="targetPoint" />
          </mxGeometry>
        </mxCell>
        <mxCell id="Ke_MiJOTaXX_mKwtnipO-1" style="edgeStyle=orthogonalEdgeStyle;rounded=0;orthogonalLoop=1;jettySize=auto;html=1;entryX=1;entryY=0.75;entryDx=0;entryDy=0;" edge="1" parent="qpv_vnCNV6HC7hxUtdJv-1" source="Ke_MiJOTaXX_mKwtnipO-0" target="jTl3cZE2TD3DU1JpzOqJ-22">
          <mxGeometry relative="1" as="geometry" />
        </mxCell>
        <mxCell id="Ke_MiJOTaXX_mKwtnipO-0" value="用户画像" style="rounded=0;whiteSpace=wrap;html=1;" vertex="1" parent="qpv_vnCNV6HC7hxUtdJv-1">
          <mxGeometry x="261" y="690" width="70" height="40" as="geometry" />
        </mxCell>
        <mxCell id="Ke_MiJOTaXX_mKwtnipO-2" style="edgeStyle=orthogonalEdgeStyle;rounded=0;orthogonalLoop=1;jettySize=auto;html=1;" edge="1" parent="qpv_vnCNV6HC7hxUtdJv-1" source="jTl3cZE2TD3DU1JpzOqJ-14" target="Ke_MiJOTaXX_mKwtnipO-0">
          <mxGeometry relative="1" as="geometry">
            <mxPoint x="125" y="730" as="targetPoint" />
            <Array as="points">
              <mxPoint x="120" y="710" />
            </Array>
          </mxGeometry>
        </mxCell>
      </root>
    </mxGraphModel>
  </diagram>
  <diagram name="理赔 数据流向图" id="qUswY-pW2Ik7gcRo7-7O">
    <mxGraphModel dx="2074" dy="1155" grid="1" gridSize="10" guides="1" tooltips="1" connect="1" arrows="1" fold="1" page="1" pageScale="1" pageWidth="850" pageHeight="1100" math="0" shadow="0">
      <root>
        <mxCell id="ABh1y4KO2UoATcZSSL96-0" />
        <mxCell id="ABh1y4KO2UoATcZSSL96-1" parent="ABh1y4KO2UoATcZSSL96-0" />
        <mxCell id="ABh1y4KO2UoATcZSSL96-8" value="图数据库(Neo4j)" style="rounded=0;whiteSpace=wrap;html=1;" parent="ABh1y4KO2UoATcZSSL96-1" vertex="1">
          <mxGeometry x="110" y="460" width="130" height="60" as="geometry" />
        </mxCell>
        <mxCell id="m6ao8h0m_ph_1f8lopXz-3" style="edgeStyle=orthogonalEdgeStyle;rounded=0;orthogonalLoop=1;jettySize=auto;html=1;entryX=0.5;entryY=1;entryDx=0;entryDy=0;" edge="1" parent="ABh1y4KO2UoATcZSSL96-1" source="ABh1y4KO2UoATcZSSL96-14" target="ABh1y4KO2UoATcZSSL96-8">
          <mxGeometry relative="1" as="geometry">
            <Array as="points">
              <mxPoint x="390" y="600" />
              <mxPoint x="175" y="600" />
            </Array>
          </mxGeometry>
        </mxCell>
        <mxCell id="m6ao8h0m_ph_1f8lopXz-4" value="计算结果缓存" style="edgeLabel;html=1;align=center;verticalAlign=middle;resizable=0;points=[];" vertex="1" connectable="0" parent="m6ao8h0m_ph_1f8lopXz-3">
          <mxGeometry x="0.1844" y="-1" relative="1" as="geometry">
            <mxPoint x="38" as="offset" />
          </mxGeometry>
        </mxCell>
        <mxCell id="ABh1y4KO2UoATcZSSL96-14" value="后端API" style="rounded=0;whiteSpace=wrap;html=1;" parent="ABh1y4KO2UoATcZSSL96-1" vertex="1">
          <mxGeometry x="355" y="470" width="70" height="40" as="geometry" />
        </mxCell>
        <mxCell id="ABh1y4KO2UoATcZSSL96-15" value="" style="endArrow=classic;html=1;entryX=0;entryY=0.5;entryDx=0;entryDy=0;exitX=1;exitY=0.5;exitDx=0;exitDy=0;" parent="ABh1y4KO2UoATcZSSL96-1" source="ABh1y4KO2UoATcZSSL96-8" target="ABh1y4KO2UoATcZSSL96-14" edge="1">
          <mxGeometry width="50" height="50" relative="1" as="geometry">
            <mxPoint x="224" y="440" as="sourcePoint" />
            <mxPoint x="274" y="390" as="targetPoint" />
          </mxGeometry>
        </mxCell>
        <mxCell id="m6ao8h0m_ph_1f8lopXz-1" value="历史数据" style="edgeLabel;html=1;align=center;verticalAlign=middle;resizable=0;points=[];" vertex="1" connectable="0" parent="ABh1y4KO2UoATcZSSL96-15">
          <mxGeometry x="-0.0154" y="-2" relative="1" as="geometry">
            <mxPoint x="-7" y="-2" as="offset" />
          </mxGeometry>
        </mxCell>
        <mxCell id="ABh1y4KO2UoATcZSSL96-16" value="前端应用" style="rounded=0;whiteSpace=wrap;html=1;" parent="ABh1y4KO2UoATcZSSL96-1" vertex="1">
          <mxGeometry x="550" y="470" width="70" height="40" as="geometry" />
        </mxCell>
        <mxCell id="ABh1y4KO2UoATcZSSL96-17" value="" style="endArrow=classic;html=1;entryX=0;entryY=0.5;entryDx=0;entryDy=0;exitX=1;exitY=0.5;exitDx=0;exitDy=0;" parent="ABh1y4KO2UoATcZSSL96-1" source="ABh1y4KO2UoATcZSSL96-14" target="ABh1y4KO2UoATcZSSL96-16" edge="1">
          <mxGeometry width="50" height="50" relative="1" as="geometry">
            <mxPoint x="369" y="500" as="sourcePoint" />
            <mxPoint x="414" y="500" as="targetPoint" />
          </mxGeometry>
        </mxCell>
        <mxCell id="zsDvxFRIwsg9LDjBRS95-0" value="核心赔案信息API" style="rounded=0;whiteSpace=wrap;html=1;" parent="ABh1y4KO2UoATcZSSL96-1" vertex="1">
          <mxGeometry x="325" y="360" width="130" height="60" as="geometry" />
        </mxCell>
        <mxCell id="zsDvxFRIwsg9LDjBRS95-1" value="" style="endArrow=classic;html=1;rounded=0;entryX=0.5;entryY=0;entryDx=0;entryDy=0;exitX=0.5;exitY=1;exitDx=0;exitDy=0;" parent="ABh1y4KO2UoATcZSSL96-1" source="zsDvxFRIwsg9LDjBRS95-0" target="ABh1y4KO2UoATcZSSL96-14" edge="1">
          <mxGeometry width="50" height="50" relative="1" as="geometry">
            <mxPoint x="400" y="430" as="sourcePoint" />
            <mxPoint x="450" y="380" as="targetPoint" />
          </mxGeometry>
        </mxCell>
      </root>
    </mxGraphModel>
  </diagram>
  <diagram id="jItTOKeBsQuaXHMUix3J" name="理赔">
    <mxGraphModel dx="1106" dy="783" grid="1" gridSize="10" guides="1" tooltips="1" connect="1" arrows="1" fold="1" page="1" pageScale="1" pageWidth="850" pageHeight="1100" math="0" shadow="0">
      <root>
        <mxCell id="0" />
        <mxCell id="1" parent="0" />
        <mxCell id="NOYxF8SrCB-PiPD406mw-3" value="" style="rounded=0;whiteSpace=wrap;html=1;" vertex="1" parent="1">
          <mxGeometry x="40" y="80" width="410" height="420" as="geometry" />
        </mxCell>
        <mxCell id="NOYxF8SrCB-PiPD406mw-1" value="" style="rounded=0;whiteSpace=wrap;html=1;" vertex="1" parent="1">
          <mxGeometry x="620" y="90" width="210" height="280" as="geometry" />
        </mxCell>
        <mxCell id="Ls_BRyFKqlVONUe5bpOM-1" value="赔案数据" style="ellipse;whiteSpace=wrap;html=1;aspect=fixed;" parent="1" vertex="1">
          <mxGeometry x="200" y="150" width="80" height="80" as="geometry" />
        </mxCell>
        <mxCell id="Ls_BRyFKqlVONUe5bpOM-2" value="个案风险在线计算" style="rounded=1;whiteSpace=wrap;html=1;" parent="1" vertex="1">
          <mxGeometry x="50" y="290" width="120" height="60" as="geometry" />
        </mxCell>
        <mxCell id="Ls_BRyFKqlVONUe5bpOM-3" value="" style="edgeStyle=elbowEdgeStyle;elbow=vertical;endArrow=classic;html=1;rounded=0;exitX=0.5;exitY=1;exitDx=0;exitDy=0;" parent="1" source="Ls_BRyFKqlVONUe5bpOM-1" target="Ls_BRyFKqlVONUe5bpOM-2" edge="1">
          <mxGeometry width="50" height="50" relative="1" as="geometry">
            <mxPoint x="200" y="400" as="sourcePoint" />
            <mxPoint x="250" y="350" as="targetPoint" />
          </mxGeometry>
        </mxCell>
        <mxCell id="Ls_BRyFKqlVONUe5bpOM-4" value="团案风险查询" style="rounded=1;whiteSpace=wrap;html=1;" parent="1" vertex="1">
          <mxGeometry x="310" y="290" width="120" height="60" as="geometry" />
        </mxCell>
        <mxCell id="Ls_BRyFKqlVONUe5bpOM-6" value="" style="edgeStyle=elbowEdgeStyle;elbow=vertical;endArrow=classic;html=1;rounded=0;exitX=0.5;exitY=1;exitDx=0;exitDy=0;" parent="1" source="Ls_BRyFKqlVONUe5bpOM-1" target="Ls_BRyFKqlVONUe5bpOM-4" edge="1">
          <mxGeometry width="50" height="50" relative="1" as="geometry">
            <mxPoint x="250" y="230" as="sourcePoint" />
            <mxPoint x="120" y="300" as="targetPoint" />
          </mxGeometry>
        </mxCell>
        <mxCell id="Ls_BRyFKqlVONUe5bpOM-7" value="风控场景评分" style="ellipse;whiteSpace=wrap;html=1;aspect=fixed;" parent="1" vertex="1">
          <mxGeometry x="200" y="410" width="80" height="80" as="geometry" />
        </mxCell>
        <mxCell id="Ls_BRyFKqlVONUe5bpOM-8" value="" style="edgeStyle=elbowEdgeStyle;elbow=vertical;endArrow=classic;html=1;rounded=0;entryX=0.5;entryY=0;entryDx=0;entryDy=0;exitX=0.5;exitY=1;exitDx=0;exitDy=0;" parent="1" source="Ls_BRyFKqlVONUe5bpOM-4" target="Ls_BRyFKqlVONUe5bpOM-7" edge="1">
          <mxGeometry width="50" height="50" relative="1" as="geometry">
            <mxPoint x="400" y="410" as="sourcePoint" />
            <mxPoint x="450" y="360" as="targetPoint" />
          </mxGeometry>
        </mxCell>
        <mxCell id="Ls_BRyFKqlVONUe5bpOM-9" value="" style="edgeStyle=elbowEdgeStyle;elbow=vertical;endArrow=classic;html=1;rounded=0;exitX=0.5;exitY=1;exitDx=0;exitDy=0;" parent="1" source="Ls_BRyFKqlVONUe5bpOM-2" edge="1">
          <mxGeometry width="50" height="50" relative="1" as="geometry">
            <mxPoint x="380" y="360" as="sourcePoint" />
            <mxPoint x="240" y="410" as="targetPoint" />
          </mxGeometry>
        </mxCell>
        <mxCell id="Ls_BRyFKqlVONUe5bpOM-10" value="Neo4J" style="shape=cylinder3;whiteSpace=wrap;html=1;boundedLbl=1;backgroundOutline=1;size=15;" parent="1" vertex="1">
          <mxGeometry x="520" y="280" width="60" height="80" as="geometry" />
        </mxCell>
        <mxCell id="Ls_BRyFKqlVONUe5bpOM-11" value="" style="endArrow=classic;startArrow=classic;html=1;rounded=0;entryX=0;entryY=0.5;entryDx=0;entryDy=0;entryPerimeter=0;exitX=1;exitY=0.5;exitDx=0;exitDy=0;" parent="1" source="Ls_BRyFKqlVONUe5bpOM-4" target="Ls_BRyFKqlVONUe5bpOM-10" edge="1">
          <mxGeometry width="50" height="50" relative="1" as="geometry">
            <mxPoint x="400" y="410" as="sourcePoint" />
            <mxPoint x="450" y="360" as="targetPoint" />
          </mxGeometry>
        </mxCell>
        <mxCell id="Ls_BRyFKqlVONUe5bpOM-13" value="实时接口" style="shape=parallelogram;perimeter=parallelogramPerimeter;whiteSpace=wrap;html=1;fixedSize=1;" parent="1" vertex="1">
          <mxGeometry x="50" y="120" width="120" height="60" as="geometry" />
        </mxCell>
        <mxCell id="Ls_BRyFKqlVONUe5bpOM-14" value="DAG离线计算" style="rounded=1;whiteSpace=wrap;html=1;" parent="1" vertex="1">
          <mxGeometry x="670" y="290" width="120" height="60" as="geometry" />
        </mxCell>
        <mxCell id="Ls_BRyFKqlVONUe5bpOM-15" value="" style="endArrow=classic;startArrow=classic;html=1;rounded=0;exitX=1;exitY=0.5;exitDx=0;exitDy=0;exitPerimeter=0;" parent="1" source="Ls_BRyFKqlVONUe5bpOM-10" target="Ls_BRyFKqlVONUe5bpOM-14" edge="1">
          <mxGeometry width="50" height="50" relative="1" as="geometry">
            <mxPoint x="440" y="330" as="sourcePoint" />
            <mxPoint x="530" y="330" as="targetPoint" />
          </mxGeometry>
        </mxCell>
        <mxCell id="Ls_BRyFKqlVONUe5bpOM-16" value="核心镜像数据库&lt;br&gt;T+1" style="shape=cylinder3;whiteSpace=wrap;html=1;boundedLbl=1;backgroundOutline=1;size=15;" parent="1" vertex="1">
          <mxGeometry x="700" y="120" width="60" height="80" as="geometry" />
        </mxCell>
        <mxCell id="Ls_BRyFKqlVONUe5bpOM-17" value="" style="endArrow=classic;html=1;rounded=0;entryX=0.5;entryY=0;entryDx=0;entryDy=0;exitX=0.5;exitY=1;exitDx=0;exitDy=0;exitPerimeter=0;" parent="1" source="Ls_BRyFKqlVONUe5bpOM-16" target="Ls_BRyFKqlVONUe5bpOM-14" edge="1">
          <mxGeometry width="50" height="50" relative="1" as="geometry">
            <mxPoint x="400" y="400" as="sourcePoint" />
            <mxPoint x="450" y="350" as="targetPoint" />
          </mxGeometry>
        </mxCell>
        <mxCell id="NOYxF8SrCB-PiPD406mw-2" value="调查风控系统" style="text;html=1;strokeColor=none;fillColor=none;align=center;verticalAlign=middle;whiteSpace=wrap;rounded=0;" vertex="1" parent="1">
          <mxGeometry x="685" y="90" width="90" height="30" as="geometry" />
        </mxCell>
        <mxCell id="NOYxF8SrCB-PiPD406mw-4" value="理赔风控系统" style="text;html=1;strokeColor=none;fillColor=none;align=center;verticalAlign=middle;whiteSpace=wrap;rounded=0;" vertex="1" parent="1">
          <mxGeometry x="190" y="90" width="90" height="30" as="geometry" />
        </mxCell>
      </root>
    </mxGraphModel>
  </diagram>
</mxfile>
